<svg width="103" height="44" viewBox="0 0 103 44" fill="none" xmlns="http://www.w3.org/2000/svg">
<path d="M27.1477 27.7571C26.0335 30.2493 24.2198 32.367 21.9254 33.8549C19.6309 35.3428 16.9537 36.1374 14.2165 36.1428C11.4792 36.1483 8.79884 35.3643 6.49848 33.8855C4.19812 32.4067 2.376 30.2962 1.25182 27.8085C0.127629 25.3207 -0.250629 22.5619 0.162647 19.8647C0.575923 17.1675 1.76309 14.647 3.58101 12.6071C5.39893 10.5673 7.76999 9.09518 10.4083 8.36828C13.0466 7.64137 15.8396 7.69071 18.4504 8.51036L16.7244 13.9732C15.1708 13.4855 13.5089 13.4561 11.9391 13.8887C10.3692 14.3212 8.9583 15.1972 7.87658 16.4109C6.79486 17.6247 6.08845 19.1245 5.84254 20.7294C5.59663 22.3343 5.8217 23.9759 6.49063 25.4562C7.15956 26.9365 8.24378 28.1924 9.61257 29.0723C10.9814 29.9522 12.5763 30.4187 14.205 30.4155C15.8338 30.4122 17.4268 29.9394 18.7921 29.0541C20.1574 28.1687 21.2366 26.9086 21.8996 25.4257L27.1477 27.7571Z" fill="#242731"/>
<path d="M17.9688 14.9286H33.1029V20.24H17.9688V14.9286Z" fill="#796EFF"/>
<path d="M22.7012 24.6518L22.7012 10.5089L28.3765 10.5089L28.3765 24.6518L22.7012 24.6518Z" fill="#796EFF"/>
<path d="M46.4778 31H40.0261V13.5455H46.4693C48.2477 13.5455 49.7789 13.8949 51.063 14.5938C52.3528 15.2869 53.3471 16.2869 54.046 17.5938C54.7449 18.8949 55.0943 20.4517 55.0943 22.2642C55.0943 24.0824 54.7449 25.6449 54.046 26.9517C53.3528 28.2585 52.3613 29.2614 51.0716 29.9602C49.7818 30.6534 48.2505 31 46.4778 31ZM44.2449 27.4034H46.3159C47.2931 27.4034 48.1199 27.2386 48.796 26.9091C49.4778 26.5739 49.992 26.0312 50.3386 25.2812C50.6909 24.5256 50.867 23.5199 50.867 22.2642C50.867 21.0085 50.6909 20.0085 50.3386 19.2642C49.9863 18.5142 49.4664 17.9744 48.7789 17.6449C48.0971 17.3097 47.2562 17.142 46.2562 17.142H44.2449V27.4034ZM63.6681 31.2472C62.2931 31.2472 61.1113 30.9659 60.1227 30.4034C59.1397 29.8352 58.3812 29.0455 57.8471 28.0341C57.3187 27.017 57.0545 25.8381 57.0545 24.4972C57.0545 23.1506 57.3187 21.9716 57.8471 20.9602C58.3812 19.9432 59.1397 19.1534 60.1227 18.5909C61.1113 18.0227 62.2931 17.7386 63.6681 17.7386C65.0431 17.7386 66.2221 18.0227 67.2051 18.5909C68.1937 19.1534 68.9522 19.9432 69.4806 20.9602C70.0147 21.9716 70.2818 23.1506 70.2818 24.4972C70.2818 25.8381 70.0147 27.017 69.4806 28.0341C68.9522 29.0455 68.1937 29.8352 67.2051 30.4034C66.2221 30.9659 65.0431 31.2472 63.6681 31.2472ZM63.6937 28.1023C64.1937 28.1023 64.617 27.9489 64.9636 27.642C65.3102 27.3352 65.5744 26.9091 65.7562 26.3636C65.9437 25.8182 66.0375 25.1875 66.0375 24.4716C66.0375 23.7443 65.9437 23.108 65.7562 22.5625C65.5744 22.017 65.3102 21.5909 64.9636 21.2841C64.617 20.9773 64.1937 20.8239 63.6937 20.8239C63.1767 20.8239 62.7392 20.9773 62.3812 21.2841C62.0289 21.5909 61.7591 22.017 61.5716 22.5625C61.3897 23.108 61.2988 23.7443 61.2988 24.4716C61.2988 25.1875 61.3897 25.8182 61.5716 26.3636C61.7591 26.9091 62.0289 27.3352 62.3812 27.642C62.7392 27.9489 63.1767 28.1023 63.6937 28.1023ZM78.5275 31.2472C77.1468 31.2472 75.9622 30.9631 74.9735 30.3949C73.9906 29.8267 73.2349 29.0369 72.7065 28.0256C72.1781 27.0085 71.9139 25.8324 71.9139 24.4972C71.9139 23.1562 72.1781 21.9801 72.7065 20.9688C73.2406 19.9517 73.9991 19.1591 74.9821 18.5909C75.9707 18.0227 77.1497 17.7386 78.519 17.7386C79.7292 17.7386 80.7832 17.9574 81.6809 18.3949C82.5843 18.8324 83.2889 19.4517 83.7946 20.2528C84.3059 21.0483 84.5758 21.983 84.6042 23.0568H80.7093C80.6298 22.3864 80.4025 21.8608 80.0275 21.4801C79.6582 21.0994 79.1752 20.9091 78.5787 20.9091C78.0957 20.9091 77.6724 21.0455 77.3088 21.3182C76.9451 21.5852 76.661 21.983 76.4565 22.5114C76.2576 23.0341 76.1582 23.6818 76.1582 24.4545C76.1582 25.2273 76.2576 25.8807 76.4565 26.4148C76.661 26.9432 76.9451 27.3437 77.3088 27.6165C77.6724 27.8835 78.0957 28.017 78.5787 28.017C78.965 28.017 79.3059 27.9347 79.6014 27.7699C79.9025 27.6051 80.1497 27.3636 80.3429 27.0455C80.536 26.7216 80.6582 26.3295 80.7093 25.8693H84.6042C84.5645 26.9489 84.2946 27.892 83.7946 28.6989C83.3002 29.5057 82.6042 30.1335 81.7065 30.5824C80.8145 31.0256 79.7548 31.2472 78.5275 31.2472ZM94.1262 17.9091V20.9773H85.8677V17.9091H94.1262ZM87.5978 14.7727H91.7654V26.8835C91.7654 27.1392 91.8052 27.3466 91.8848 27.5057C91.97 27.6591 92.0922 27.7699 92.2512 27.8381C92.4103 27.9006 92.6007 27.9318 92.8223 27.9318C92.9814 27.9318 93.149 27.9176 93.3251 27.8892C93.5069 27.8551 93.6433 27.8267 93.7342 27.804L94.3649 30.8125C94.166 30.8693 93.8848 30.9403 93.5211 31.0256C93.1632 31.1108 92.7342 31.1648 92.2342 31.1875C91.2569 31.233 90.4189 31.1193 89.72 30.8466C89.0268 30.5682 88.4956 30.1364 88.1262 29.5511C87.7626 28.9659 87.5865 28.2301 87.5978 27.3438V14.7727ZM98.5964 31.2472C97.9828 31.2472 97.4572 31.0312 97.0197 30.5994C96.5879 30.1676 96.3748 29.6449 96.3805 29.0312C96.3748 28.429 96.5879 27.9148 97.0197 27.4886C97.4572 27.0568 97.9828 26.8409 98.5964 26.8409C99.176 26.8409 99.6873 27.0568 100.131 27.4886C100.579 27.9148 100.807 28.429 100.812 29.0312C100.807 29.4403 100.699 29.8125 100.488 30.1477C100.284 30.483 100.014 30.75 99.6788 30.9489C99.3493 31.1477 98.9885 31.2472 98.5964 31.2472Z" fill="#242731"/>
</svg>